<svg width="100" height="100" viewBox="0 0 100 100" fill="none" xmlns="http://www.w3.org/2000/svg">
<path d="M56.375 46.3167L43.625 38.9642" stroke="#C7C7C7" stroke-width="2" stroke-linecap="round" stroke-linejoin="round"/>
<path d="M62.75 55.6667V44.3333C62.7495 43.8365 62.6183 43.3485 62.3697 42.9183C62.121 42.4882 61.7636 42.1309 61.3333 41.8825L51.4167 36.2158C50.9859 35.9672 50.4974 35.8362 50 35.8362C49.5026 35.8362 49.0141 35.9672 48.5833 36.2158L38.6667 41.8825C38.2364 42.1309 37.879 42.4882 37.6303 42.9183C37.3817 43.3485 37.2505 43.8365 37.25 44.3333V55.6667C37.2505 56.1635 37.3817 56.6515 37.6303 57.0817C37.879 57.5119 38.2364 57.8691 38.6667 58.1175L48.5833 63.7842C49.0141 64.0328 49.5026 64.1638 50 64.1638C50.4974 64.1638 50.9859 64.0328 51.4167 63.7842L61.3333 58.1175C61.7636 57.8691 62.121 57.5119 62.3697 57.0817C62.6183 56.6515 62.7495 56.1635 62.75 55.6667Z" stroke="#C7C7C7" stroke-width="2" stroke-linecap="round" stroke-linejoin="round"/>
<path d="M37.6325 42.86L50 50.0142L62.3675 42.86" stroke="#C7C7C7" stroke-width="2" stroke-linecap="round" stroke-linejoin="round"/>
<path d="M50 64.28V50" stroke="#C7C7C7" stroke-width="2" stroke-linecap="round" stroke-linejoin="round"/>
</svg>
