<svg width="100" height="100" viewBox="0 0 100 100" fill="none" xmlns="http://www.w3.org/2000/svg">
<path d="M56.6667 62V59.3333C56.6667 57.9188 56.1048 56.5623 55.1046 55.5621C54.1044 54.5619 52.7478 54 51.3333 54H40.6667C39.2522 54 37.8956 54.5619 36.8954 55.5621C35.8952 56.5623 35.3333 57.9188 35.3333 59.3333V62" stroke="#C7C7C7" stroke-width="2" stroke-linecap="round" stroke-linejoin="round"/>
<path d="M46 48.6667C48.9455 48.6667 51.3333 46.2789 51.3333 43.3333C51.3333 40.3878 48.9455 38 46 38C43.0545 38 40.6667 40.3878 40.6667 43.3333C40.6667 46.2789 43.0545 48.6667 46 48.6667Z" stroke="#C7C7C7" stroke-width="2" stroke-linecap="round" stroke-linejoin="round"/>
<path d="M64.6667 62V59.3333C64.6658 58.1516 64.2725 57.0037 63.5485 56.0698C62.8245 55.1358 61.8108 54.4688 60.6667 54.1733" stroke="#C7C7C7" stroke-width="2" stroke-linecap="round" stroke-linejoin="round"/>
<path d="M55.3333 38.1733C56.4806 38.4671 57.4974 39.1343 58.2235 40.0698C58.9497 41.0052 59.3438 42.1558 59.3438 43.34C59.3438 44.5242 58.9497 45.6748 58.2235 46.6103C57.4974 47.5457 56.4806 48.2129 55.3333 48.5067" stroke="#C7C7C7" stroke-width="2" stroke-linecap="round" stroke-linejoin="round"/>
</svg>
